PathFileType	4	(X/Y/Z)	C:\Users\Basilio\Documents\Thesis Gigler\squatting_fais\c3dfiles\038\SJ_pre3\markers_experimental.trc
DataRate	CameraRate	NumFrames	NumMarkers	Units	OrigDataRate	OrigDataStartFrame	OrigNumFrames
200.000000	200.000000	4	61	mm	200.000000	1286	2059
Frame#	Time	FHD			LBHD			RBHD			C7			T10			CLAV			LSHO			LUUPA			LMUPA			LDUPA			LLEP			LMEP			LRAD			LUL			LRFIN			RSHO			RUPA1			RMUPA			RDUPA			RLEP			RMEP			RRAD			RUL			RUFIN			LASI			RASI			USACR			LSACR			RSACR			LTHI1			LTHI2			LTHI3			LTHI4			LLFC			LMFC			LTIB1			LTIB2			LTIB3			LTIB4			LLMAL			LMMAL			LHEE			LMT1			LMT2			LMT5			RTHI			RTHI2			RTHI3			RTHI4			RLFC			RMFC			RTIB1			RTIB2			RTIB3			RTIB4			RLMAL			RMMAL			RHEE			RMT1			RMT2			RMT5			
		X1	Y1	Z1	X2	Y2	Z2	X3	Y3	Z3	X4	Y4	Z4	X5	Y5	Z5	X6	Y6	Z6	X7	Y7	Z7	X8	Y8	Z8	X9	Y9	Z9	X10	Y10	Z10	X11	Y11	Z11	X12	Y12	Z12	X13	Y13	Z13	X14	Y14	Z14	X15	Y15	Z15	X16	Y16	Z16	X17	Y17	Z17	X18	Y18	Z18	X19	Y19	Z19	X20	Y20	Z20	X21	Y21	Z21	X22	Y22	Z22	X23	Y23	Z23	X24	Y24	Z24	X25	Y25	Z25	X26	Y26	Z26	X27	Y27	Z27	X28	Y28	Z28	X29	Y29	Z29	X30	Y30	Z30	X31	Y31	Z31	X32	Y32	Z32	X33	Y33	Z33	X34	Y34	Z34	X35	Y35	Z35	X36	Y36	Z36	X37	Y37	Z37	X38	Y38	Z38	X39	Y39	Z39	X40	Y40	Z40	X41	Y41	Z41	X42	Y42	Z42	X43	Y43	Z43	X44	Y44	Z44	X45	Y45	Z45	X46	Y46	Z46	X47	Y47	Z47	X48	Y48	Z48	X49	Y49	Z49	X50	Y50	Z50	X51	Y51	Z51	X52	Y52	Z52	X53	Y53	Z53	X54	Y54	Z54	X55	Y55	Z55	X56	Y56	Z56	X57	Y57	Z57	X58	Y58	Z58	X59	Y59	Z59	X60	Y60	Z60	X61	Y61	Z61	

1287	6.43	-78.91265106201173	1251.461547851563	-950.4187011718752	-219.6586914062501	1166.29541015625	-1007.94482421875	-207.3809356689454	1158.387329101563	-862.153991699219	-257.2550659179688	1063.806762695313	-927.035095214844	-449.9029541015626	873.8383789062502	-900.7348632812502	-155.0627136230469	960.0591430664065	-939.9026489257815	-161.5138244628907	1010.739013671875	-1098.40869140625	-248.0420074462891	895.463562011719	-1286.612670898438	-244.5525817871094	847.058288574219	-1269.134399414063	-273.6499938964844	839.4143676757815	-1319.838500976563	-307.4718627929688	787.4212646484377	-1338.031860351563	-380.7741394042969	828.4112548828127	-1349.226684570313	-485.6751403808595	716.1559448242189	-1103.721557617188	-448.3833923339845	657.2827148437501	-1130.897094726563	-480.8996887207032	682.4584960937501	-1028.654663085938	-134.3043365478516	1003.6865234375	-784.2156982421877	-174.2755889892578	890.4168701171877	-593.0861206054689	-187.7869110107422	844.4846191406252	-598.5357666015626	-197.5939483642579	850.172546386719	-540.1493530273439	-234.6130676269532	793.6849365234377	-503.1016235351564	-303.1473388671876	838.7188720703127	-479.3405761718751	-436.4604797363282	682.3466186523439	-665.0321044921876	-388.4993896484376	630.3189086914064	-659.3837280273439	-437.9544677734376	679.9688720703126	-738.7335205078126	-468.6614074707032	660.9257812500001	-1011.471252441406	-440.9193725585939	660.3477172851564	-766.2582397460939	-578.5507812500001	774.1074218750002	-877.1977539062502	-611.7662963867189	755.1232299804689	-900.4692993164065	-600.4630126953126	755.6074829101564	-844.278503417969	-413.3555297851564	558.1376342773439	-1166.714111328125	-334.1676330566407	545.3320922851564	-1201.825073242188	-303.7752685546876	576.3158569335939	-1178.852172851563	-310.0039672851563	489.8738098144532	-1214.241333007813	-267.5731201171876	450.8336791992189	-1219.87060546875	-227.6429138183594	440.6213684082032	-1116.832641601563	-259.9204406738282	278.5852050781251	-1134.984741210938	-331.1985168457032	251.7256469726563	-1180.560913085938	-296.9273986816407	237.8550720214844	-1156.903442382813	-329.7109069824219	175.8063659667969	-1108.385498046875	-457.6959228515626	82.19275665283205	-1093.422119140625	-402.3970336914064	98.33897399902347	-1030.36767578125	-497.1175231933595	45.30803680419923	-1027.656616210938	-293.0886840820313	46.52789688110352	-1081.455444335938	-301.3722839355469	49.08461761474611	-1131.527709960938	-352.7134399414063	30.02558708190919	-1166.86962890625	-402.2940673828126	537.3851318359376	-655.9201660156251	-337.8807983398438	533.1718139648439	-639.4591674804689	-316.2199707031251	560.1184082031251	-642.8543090820314	-291.2198181152344	459.5844116210939	-641.1651611328126	-205.1661987304688	407.9382629394532	-640.1761474609376	-186.8085327148438	411.1029663085939	-751.7484130859376	-229.3337097167969	250.9675445556641	-685.9428100585939	-344.2468261718751	222.4107666015626	-676.1479492187501	-301.2077636718751	203.1933746337891	-681.7170410156251	-310.9486694335938	156.2918548583985	-715.0482177734376	-435.2625732421876	89.81929779052736	-716.8713989257814	-384.827606201172	85.52610015869142	-786.9980468750002	-484.4830322265626	42.73168945312501	-794.727722167969	-284.0650329589844	46.97027587890626	-706.7352294921876	-302.9086914062501	53.43574523925783	-665.2814331054689	-359.5906677246094	37.12405014038087	-637.4159545898439	
1288	6.435	-78.84889221191408	1251.349243164063	-950.382751464844	-219.7924194335938	1165.489868164063	-1007.938720703125	-207.2360076904297	1158.203735351563	-862.085632324219	-257.2175292968751	1063.659057617188	-927.017517089844	-449.858612060547	873.6868286132815	-900.6816406250002	-155.1539154052735	959.2085571289065	-940.0249023437502	-161.391098022461	1010.488037109375	-1098.363037109375	-247.9252166748047	895.2828369140627	-1286.53857421875	-244.5106201171876	846.7518310546877	-1269.056884765625	-273.6071777343751	839.2010498046877	-1319.752197265625	-307.4755249023438	787.1593017578127	-1337.937744140625	-380.7445678710938	828.2268676757815	-1349.226684570313	-485.7423706054689	716.0762329101564	-1103.6982421875	-448.3502197265626	657.1706542968751	-1130.87255859375	-480.8883666992189	682.3496704101564	-1028.532348632813	-134.2381439208985	1003.500244140625	-784.162780761719	-174.1932678222657	890.2095947265627	-592.9722290039064	-187.8294525146485	844.2955322265627	-598.5791015625001	-197.4995574951172	849.872009277344	-540.0842895507814	-234.5529785156251	793.422790527344	-503.007293701172	-303.0537109375001	838.4961547851565	-479.3053588867189	-436.3591308593751	682.1699829101564	-664.9649047851564	-388.4774475097657	630.1356811523439	-659.3472900390626	-437.930389404297	679.8093261718751	-738.6621093750001	-468.6706848144532	660.7106933593751	-1011.441772460938	-440.9132690429689	660.3802490234376	-765.9081420898439	-578.5778198242189	773.982604980469	-877.1409912109377	-611.7056884765626	754.9598999023439	-900.4019165039065	-600.5150146484376	755.4553833007814	-844.1700439453127	-413.3889770507814	558.0733032226564	-1166.694946289063	-334.2217712402344	545.3198852539064	-1201.870239257813	-303.8440551757813	576.3003540039064	-1178.8740234375	-310.0193786621094	489.8985900878907	-1214.261596679688	-267.6959838867188	450.870086669922	-1219.901489257813	-227.6405792236329	440.5340270996095	-1116.8857421875	-259.9139709472657	278.5655822753907	-1135.013061523438	-331.2157897949219	251.7668151855469	-1180.667602539063	-296.9179992675782	237.8409881591797	-1156.956787109375	-329.7135009765626	175.800277709961	-1108.392333984375	-457.7397766113282	82.19998931884767	-1093.403198242188	-402.4091796875001	98.36322784423831	-1030.37548828125	-497.1099243164064	45.3140983581543	-1027.660278320313	-292.9546203613282	46.52248001098634	-1081.468872070313	-301.4079589843751	49.15089035034181	-1131.520629882813	-352.7282104492188	30.05333900451661	-1166.891235351563	-402.5927124023439	536.8424682617189	-656.2849731445314	-337.8112487792969	533.0818481445314	-639.4033203125001	-316.1311645507813	559.9544677734376	-642.8030395507814	-291.1683044433594	459.5020751953126	-641.1364746093751	-205.0372619628907	407.7938537597657	-640.1812133789064	-186.7693328857422	410.9590148925782	-751.7100830078126	-229.2763671875001	250.9613647460938	-686.0229492187501	-344.1577148437501	222.2971649169922	-676.1611938476564	-301.1219787597657	203.119857788086	-681.7504272460939	-310.8861694335938	156.2696533203125	-715.0477905273439	-435.2280578613282	89.8295135498047	-716.8638916015626	-384.857147216797	85.50736236572267	-786.9951171875002	-484.4786071777345	42.69953155517579	-794.7529296875002	-284.0656738281251	46.87188339233399	-706.7721557617189	-302.9813537597657	53.41876220703126	-665.2849121093751	-359.5554199218751	37.13427734375001	-637.3992309570314	
1289	6.44	-78.77532958984376	1251.21142578125	-950.3623046875002	-219.7240447998047	1165.2841796875	-1007.854614257813	-207.1849670410157	1158.025756835938	-862.0218505859377	-257.1353149414063	1063.438354492188	-926.9437255859377	-449.8001098632814	873.5233154296877	-900.638610839844	-155.1430053710938	959.0073852539065	-939.9224853515627	-161.2992248535157	1010.264526367188	-1098.27197265625	-247.8798217773438	895.1985473632815	-1286.437377929688	-244.4627838134766	846.5784301757815	-1268.958251953125	-273.4833068847657	838.970886230469	-1319.63818359375	-307.3740539550782	787.0089111328127	-1337.87158203125	-380.6383972167969	828.076354980469	-1349.181518554688	-485.8577880859376	715.9716186523439	-1103.686889648438	-448.5158691406251	657.0442504882814	-1130.841796875	-480.9204101562501	682.2026977539064	-1028.571655273438	-134.201644897461	1003.255187988281	-784.101013183594	-174.1076202392578	890.0183715820315	-592.9223022460939	-187.7080383300782	844.0369262695315	-598.5028076171876	-197.4077301025391	849.640319824219	-540.0346069335939	-234.4897155761719	793.179138183594	-502.9463806152345	-302.9905700683594	838.379821777344	-479.2303771972657	-436.3132934570314	681.9793090820314	-664.9134521484376	-388.4573669433595	630.0104370117189	-659.3411865234376	-437.9107055664064	679.6728515625001	-738.6856079101564	-468.959686279297	660.5958251953126	-1011.279479980469	-440.4073181152345	660.4161987304689	-766.2434692382814	-578.5743408203126	773.8840332031252	-877.0650024414065	-611.7080078125001	754.7850952148439	-900.3609008789065	-600.4179077148439	755.2287597656251	-844.171081542969	-413.5325317382814	558.0332031250001	-1166.687255859375	-334.2820434570313	545.3308105468751	-1201.923706054688	-303.8846130371094	576.2601318359376	-1178.914794921875	-310.0558471679688	489.8527221679689	-1214.305297851563	-267.7547607421876	450.9165344238282	-1219.97265625	-227.6648406982422	440.5070190429689	-1117.008422851563	-259.9241943359376	278.5607604980469	-1135.039428710938	-331.0573730468751	251.6009674072266	-1180.63427734375	-296.8949279785157	237.8328704833985	-1156.844116210938	-329.6893615722657	175.862289428711	-1108.408935546875	-457.7308654785157	82.17182922363283	-1093.407348632813	-402.3536682128907	98.34147644042972	-1030.391235351563	-497.1273498535157	45.27725982666016	-1027.657836914063	-292.9546813964844	46.53292465209962	-1081.465209960938	-301.3454895019532	49.12133789062501	-1131.4853515625	-352.7303771972657	30.05246353149415	-1166.899047851563	-402.5462646484376	536.7534179687501	-656.3288574218751	-337.6688537597657	533.0156860351564	-639.3897705078126	-316.0462646484376	559.8930664062501	-642.8438720703126	-291.0700073242188	459.4537048339845	-641.1176757812501	-204.9629974365235	407.7491149902345	-640.2052612304689	-186.6583099365235	411.0526123046876	-751.7540283203126	-229.1869506835938	250.8909759521485	-686.0886840820314	-344.1432189941407	222.2672729492188	-676.2052001953126	-301.1310424804688	203.0647125244141	-681.8396606445314	-310.8534240722657	156.2526245117188	-715.0281372070314	-435.2190856933595	89.8336868286133	-716.8610229492189	-385.700164794922	85.80027008056642	-787.298522949219	-484.5175781250001	42.75205993652344	-794.7526855468752	-284.0921630859376	46.86767959594727	-706.7842407226564	-302.9180297851563	53.43390274047853	-665.2970581054689	-359.5406494140626	37.17395401000977	-637.3858032226564	
1290	6.445	-78.63770294189455	1250.991333007813	-950.2500000000002	-219.7353668212891	1165.123413085938	-1007.767028808594	-207.0402374267579	1157.972900390625	-862.0212402343752	-257.0547485351563	1063.296508789063	-926.8940429687502	-449.7646484375001	873.4195556640627	-900.6143188476565	-155.0827941894532	958.7551269531252	-939.7854614257815	-161.2573394775391	1010.116149902344	-1098.191040039063	-247.8343353271485	895.057556152344	-1286.315185546875	-244.426010131836	846.3591308593752	-1268.87060546875	-273.3352050781251	838.637145996094	-1319.564575195313	-307.5108337402344	786.790222167969	-1337.663452148438	-380.6285400390626	827.9279785156252	-1349.175048828125	-485.870330810547	715.8834838867189	-1103.643798828125	-448.6372070312501	656.9627685546876	-1130.822387695313	-480.9740600585939	682.1110839843751	-1028.51025390625	-134.0717315673828	1003.081787109375	-784.0086059570315	-173.9982147216797	889.846618652344	-592.8833618164064	-187.5547790527344	843.8731079101565	-598.4852905273439	-197.2936096191407	849.3848266601565	-539.9724121093751	-234.4174957275391	792.9396972656252	-502.9019775390626	-302.9244995117188	838.2249145507815	-479.166717529297	-436.2809448242189	681.8252563476564	-664.8917236328126	-388.3892822265626	629.9149780273439	-659.3425903320314	-437.8219299316407	679.5788574218751	-738.6472778320314	-469.2500305175782	660.3425903320314	-1010.951965332031	-440.5381164550782	659.9003906250001	-766.2246704101564	-578.5411987304689	773.7095336914065	-877.0417480468752	-611.7025756835939	754.6845092773439	-900.2454223632815	-600.4191894531251	755.1078491210939	-844.1636352539065	-413.5622863769532	558.0338745117189	-1166.700927734375	-333.9354858398438	544.9680786132814	-1201.921020507813	-303.9896545410157	576.2613525390626	-1178.940307617188	-310.1742553710938	489.8985595703126	-1214.371215820313	-267.7538146972657	450.9571533203126	-1219.97412109375	-227.6775054931641	440.544647216797	-1116.994018554688	-259.9827880859376	278.5735473632813	-1135.079956054688	-331.2525939941407	251.6840972900391	-1180.628540039063	-296.9835510253907	237.8427429199219	-1156.984008789063	-329.7050476074219	175.8411712646485	-1108.476440429688	-457.6864624023439	82.25199127197267	-1093.386352539063	-402.3779602050782	98.37890625000003	-1030.334106445313	-497.1311645507814	45.28102111816407	-1027.624877929688	-293.1465454101563	46.32793045043946	-1081.484497070313	-301.3634338378907	49.05537033081056	-1131.509765625	-352.6685180664063	30.01202964782716	-1166.875732421875	-402.4450988769532	536.6452026367189	-656.3500976562501	-337.5513916015626	532.9425048828126	-639.3685913085939	-316.0257263183594	559.8068847656251	-642.8706054687501	-290.9601745605469	459.316619873047	-641.1384887695314	-204.8632507324219	407.682586669922	-640.1542358398439	-186.6220703125	410.9288635253907	-751.7466430664064	-229.1092071533204	250.8956909179688	-686.1135864257814	-344.0532226562501	222.2445526123047	-676.1960449218751	-301.0510864257813	203.0101776123047	-681.8301391601564	-310.8356323242188	156.265869140625	-715.0512084960939	-435.2375488281251	89.82938385009767	-716.8748779296876	-384.8019409179689	85.50693511962892	-787.0202636718752	-484.4634094238282	42.73877716064454	-794.7514648437502	-284.0051269531251	46.78689575195313	-706.8049316406251	-303.0076904296876	53.3996047973633	-665.2884521484376	-359.5594482421876	37.18820571899415	-637.3908691406251	
